<?xml version="1.0" encoding="UTF-8"?>
<svg id="Layer_1" xmlns="http://www.w3.org/2000/svg" version="1.1" viewBox="0 0 1239.3 1210.6">
  <!-- Generator: Adobe Illustrator 29.0.1, SVG Export Plug-In . SVG Version: 2.1.0 Build 192)  -->
  <defs>
    <style>
      .st0 {
        fill: #eaab3d;
      }

      .st1 {
        fill: #eaba3d;
      }
    </style>
  </defs>
  <path class="st0" d="M1016.7,0H222.6C99.6,0,0,99.6,0,222.6v765.5c0,122.9,99.6,222.6,222.6,222.6h794.1c122.9,0,222.6-99.7,222.6-222.6V222.6C1239.3,99.6,1139.6,0,1016.7,0ZM326.3,723.9h136.9v85.5c3.4,0,143.7,47.9,143.7,47.9l140.3-47.9,10.3-154h-301.1l-6.8-136.9h314.8l10.3-136.9h-472.2l-10.3-136.9h626.2l-17.1,273.7-24,393.5-270.3,89-270.3-89-10.3-188.2Z"/>
  <g>
    <polygon class="st0" points="757.5 655.5 747.2 809.5 606.9 857.4 606.9 655.5 757.5 655.5"/>
    <polygon class="st0" points="774.6 381.7 764.3 518.6 606.9 518.6 606.9 381.7 774.6 381.7"/>
    <polygon class="st1" points="1075.7 73.8 990.1 1055.9 606.9 1165.4 606.9 1001.1 877.2 912.1 901.2 518.6 918.3 244.9 606.9 244.9 606.9 73.8 1075.7 73.8"/>
  </g>
</svg>