<?xml version="1.0" encoding="UTF-8"?>
<svg id="Layer_1" xmlns="http://www.w3.org/2000/svg" version="1.1" viewBox="0 0 1239.3 1210.6">
  <!-- Generator: Adobe Illustrator 29.0.1, SVG Export Plug-In . SVG Version: 2.1.0 Build 192)  -->
  <defs>
    <style>
      .st0 {
        fill: #eaab3d;
      }
    </style>
  </defs>
  <path class="st0" d="M1016.7,0H222.6C99.6,0,0,99.6,0,222.6v765.5C0,1110.9,99.6,1210.6,222.6,1210.6h794.1c122.9,0,222.6-99.6,222.6-222.6V222.6C1239.3,99.6,1139.6,0,1016.7,0ZM895.6,391.6h-438l10.7,118.1h418.7l-32.2,352.2-234.1,70.9h-2.1l-231.9-70.9-12.9-143.9h113.8l4.3,55.8,128.8,27.9,126.7-27.9,12.9-150.3h-397.2l-30.1-345.7h573.3s-10.7,113.8-10.7,113.8Z"/>
</svg>