<?xml version="1.0" encoding="UTF-8"?><svg id="a" xmlns="http://www.w3.org/2000/svg" viewBox="0 0 45.27 66.54"><defs><style>.b{fill:#dbdbdb;}</style></defs><path class="b" d="M44.06.81l-.81-.81H14.53L1.79,12.74h4.17l-4.06,4.06h2.01v15.41l-3.9,3.9v6.02l7.7,7.7h2.25v4.2l12.51,12.51h3.85l-3.85-3.85h7.06l-1.66-1.66-2.6-2.6v-3h8.98l-1.9-1.9h-4.59v-3.75h2.35l1.22-1.21.89-.9-3.27-3.27v-11.04l3.99-3.99V10.78l-2.77-2.77,7.19-7.2h6.72ZM25.26,30.61v9.35h-10.24l-5.73-5.73,5.54-5.54h12.51l-2.07,1.91ZM36.84,29.15h6.54l1.89,1.89v4.29l-5,3.43h-7.54v-5.06l4.24-3.73-.13-.82Z"/></svg>