<?xml version="1.0" encoding="UTF-8"?><svg id="a" xmlns="http://www.w3.org/2000/svg" viewBox="0 0 1200 344.66"><defs><style>.b{fill:#e6e6e6;}.c{fill:#f9b036;}.d{fill:#fff;}.e{fill:#4a4a49;}</style></defs><rect class="c" width="600" height="344.66"/><rect class="b" x="600" width="600" height="344.66"/><path class="e" d="M772.47,141.13c-3.16-1.85-6.65-3-10.48-3.46l-2.67,1.74c-3.25,2.11-6.24,4.55-8.94,7.26,2.37-1.02,4.93-1.53,7.66-1.53,3.78,0,7.16.91,10.17,2.74,3,1.82,5.37,4.27,7.08,7.34,1.72,3.08,2.58,6.56,2.58,10.48,0,3.84-.86,7.32-2.58,10.42-1.72,3.11-4.08,5.56-7.08,7.34-3.01,1.79-6.39,2.69-10.17,2.69-3.71,0-7.06-.9-10.02-2.69-2.97-1.78-5.3-4.23-6.99-7.34-1.69-3.1-2.53-6.58-2.53-10.42,0-.61.02-1.2.07-1.78-1.87,4.05-3.32,8.25-4.43,12.46,1.5,2.96,3.11,5.4,4.56,7.33,2.23,3.04,5.14,5.48,8.71,7.34,3.58,1.85,7.56,2.79,11.95,2.79,5.13,0,9.71-1.22,13.77-3.69,4.05-2.46,7.23-5.82,9.57-10.07,2.33-4.25,3.49-9.05,3.49-14.37,0-5.4-1.24-10.23-3.69-14.48-2.46-4.26-5.81-7.62-10.02-10.08Z"/><path class="e" d="M841.15,141.07c-4.18-2.43-8.98-3.64-14.37-3.64-5.47,0-10.31,1.22-14.53,3.64-4.22,2.43-7.53,5.77-9.97,10.02-2.43,4.25-3.64,9.11-3.64,14.58,0,5.4,1.22,10.22,3.64,14.47,2.43,4.26,5.76,7.6,9.97,10.02,4.22,2.43,9.06,3.64,14.53,3.64,5.39,0,10.2-1.21,14.42-3.64,4.22-2.43,7.55-5.76,9.97-10.02,2.43-4.25,3.64-9.07,3.64-14.47-.07-5.47-1.32-10.33-3.74-14.58-2.44-4.25-5.74-7.6-9.92-10.02ZM843.88,176.15c-1.69,3.06-4.01,5.5-6.99,7.28-2.97,1.79-6.34,2.69-10.12,2.69s-7.17-.9-10.18-2.69c-3-1.78-5.36-4.22-7.08-7.28-1.72-3.08-2.58-6.57-2.58-10.48,0-3.92.86-7.42,2.58-10.53,1.72-3.11,4.08-5.55,7.08-7.34,3.01-1.79,6.39-2.69,10.18-2.69,3.78,0,7.15.9,10.12,2.69,2.96,1.79,5.29,4.23,6.99,7.34,1.69,3.11,2.53,6.61,2.53,10.53,0,3.92-.84,7.41-2.53,10.48Z"/><path class="e" d="M903.46,138.85c-1.79-1.01-4.4-1.51-7.84-1.51-3.91,0-7.5.94-10.78,2.83-2.53,1.46-4.67,3.33-6.43,5.61v-3.59c0-1.35-.36-2.4-1.07-3.14-.7-.73-1.74-1.11-3.09-1.11s-2.4.37-3.13,1.11c-.75.75-1.12,1.79-1.12,3.14v46.88c0,1.35.37,2.4,1.12,3.14.73.73,1.78,1.11,3.13,1.11s2.38-.37,3.09-1.11c.71-.75,1.07-1.79,1.07-3.14v-30.06c0-3.11.9-5.76,2.74-7.99,1.82-2.23,4.27-3.84,7.34-4.81,3.06-.98,6.6-1.22,10.58-.76,1.07.14,2.04.21,2.88.21s1.58-.21,2.23-.61c.64-.41,1.06-1.09,1.27-2.03.46-1.77-.19-3.16-1.98-4.16Z"/><path class="e" d="M950.43,165.12c-2.94-1.58-6.94-2.82-12-3.69-3.71-.67-6.56-1.43-8.55-2.28-1.99-.83-3.38-1.8-4.15-2.88-.78-1.07-1.17-2.36-1.17-3.84,0-2.16,1.07-3.93,3.24-5.32,2.16-1.38,5-2.07,8.5-2.07,2.77,0,5.22.42,7.39,1.26,2.16.85,4.08,2.18,5.77,4,.8.88,1.8,1.41,2.98,1.62,1.19.2,2.21,0,3.09-.61,1.01-.61,1.56-1.43,1.67-2.48.1-1.04-.22-2.04-.97-2.99-2.02-2.56-4.69-4.61-7.99-6.12-3.3-1.51-7.22-2.28-11.75-2.28-3.58,0-6.9.57-9.96,1.72-3.08,1.14-5.56,2.87-7.45,5.16-1.89,2.3-2.83,5.16-2.83,8.6,0,3.78,1.56,7.02,4.71,9.71,3.14,2.7,8.12,4.62,14.93,5.77,5.26.88,9,2.09,11.18,3.64,2.19,1.55,3.3,3.47,3.3,5.76-.07,2.36-1.2,4.34-3.4,5.92-2.19,1.59-5.61,2.38-10.27,2.38-3.17,0-6.08-.52-8.71-1.57-2.63-1.04-4.69-2.45-6.18-4.2-.73-.81-1.67-1.28-2.79-1.41-1.11-.14-2.21.2-3.29,1.01-.94.75-1.48,1.69-1.62,2.83-.13,1.15.21,2.16,1.02,3.04,2.36,2.56,5.52,4.54,9.46,5.92,3.95,1.38,8.02,2.07,12.2,2.07,4.46,0,8.3-.7,11.54-2.12,3.24-1.43,5.76-3.33,7.55-5.73,1.78-2.4,2.69-5.18,2.69-8.35,0-2.57-.63-4.9-1.88-6.99-1.25-2.1-3.34-3.94-6.27-5.53Z"/><path class="e" d="M1018.1,137.94c-1.28,0-2.32.39-3.09,1.17-.78.77-1.17,1.8-1.17,3.08v29.47c0,2.77-.73,5.21-2.23,7.34-1.48,2.12-3.5,3.81-6.07,5.06-2.57,1.25-5.43,1.87-8.6,1.87-3.3,0-6.27-.66-8.91-1.97-2.64-1.32-4.73-3.28-6.28-5.87-1.55-2.6-2.33-5.95-2.33-10.07v-25.82c0-1.21-.41-2.22-1.22-3.03-.8-.81-1.82-1.22-3.03-1.22s-2.23.41-3.04,1.22c-.81.81-1.21,1.82-1.21,3.03v25.82c0,5.6,1.07,10.32,3.24,14.17,2.16,3.84,5.11,6.77,8.86,8.76,3.74,1.99,8.01,2.98,12.8,2.98,4.38,0,8.37-.98,11.94-2.93,2.35-1.28,4.37-2.86,6.07-4.74v2.72c0,1.35.39,2.41,1.17,3.19.77.77,1.8,1.16,3.09,1.16,1.28,0,2.33-.39,3.13-1.16.81-.78,1.22-1.84,1.22-3.19v-46.78c0-1.28-.41-2.31-1.22-3.08-.8-.78-1.85-1.17-3.13-1.17Z"/><path class="e" d="M1082.48,187.24l-20.62-25.39,19.71-17.73c.88-.81,1.35-1.7,1.41-2.69.07-.98-.31-1.91-1.11-2.79-.81-.88-1.7-1.35-2.69-1.41-.98-.07-1.91.3-2.79,1.11l-27.34,24.69v-44.64c0-1.21-.39-2.2-1.17-2.98-.77-.78-1.8-1.17-3.08-1.17s-2.21.39-2.99,1.17-1.16,1.77-1.16,2.98v70.76c0,1.22.38,2.21,1.16,2.99.78.77,1.77,1.16,2.99,1.16,1.28,0,2.31-.39,3.08-1.16.78-.78,1.17-1.77,1.17-2.99v-15.8s6.78-6.1,6.78-6.1l20.35,25.04c.75.94,1.64,1.46,2.69,1.56,1.04.1,2.04-.25,2.99-1.06,1.01-.81,1.55-1.72,1.62-2.74.07-1-.26-1.95-1.01-2.82Z"/><path class="c" d="M731.03,230.42s-20.83-27.53-12.61-56.05c5.85-20.3,21.76-31.61,25.51-33.51,3-1.52,6.05-2.34,6.05-2.34,3.3-.9,6.14-1.07,8.07-1.08-2.51,1.64-7.18,4.94-11.78,10.19-27.13,30.95-15.22,82.8-15.22,82.8Z"/><path class="d" d="M165.33,141.13c-3.16-1.85-6.65-3-10.48-3.46l-2.67,1.74c-3.25,2.11-6.24,4.55-8.94,7.26,2.37-1.02,4.93-1.53,7.66-1.53,3.78,0,7.16.91,10.17,2.74,3,1.82,5.37,4.27,7.08,7.34,1.72,3.08,2.58,6.56,2.58,10.48,0,3.84-.86,7.32-2.58,10.42-1.72,3.11-4.08,5.56-7.08,7.34-3.01,1.79-6.39,2.69-10.17,2.69-3.71,0-7.06-.9-10.02-2.69-2.97-1.78-5.3-4.23-6.99-7.34-1.69-3.1-2.53-6.58-2.53-10.42,0-.61.02-1.2.07-1.78-1.87,4.05-3.32,8.25-4.43,12.46,1.5,2.96,3.11,5.4,4.56,7.33,2.23,3.04,5.14,5.48,8.71,7.34,3.58,1.85,7.56,2.79,11.95,2.79,5.13,0,9.71-1.22,13.77-3.69,4.05-2.46,7.23-5.82,9.57-10.07,2.33-4.25,3.49-9.05,3.49-14.37,0-5.4-1.24-10.23-3.69-14.48-2.46-4.26-5.81-7.62-10.02-10.08Z"/><path class="d" d="M234.01,141.07c-4.18-2.43-8.98-3.64-14.37-3.64-5.47,0-10.31,1.22-14.53,3.64-4.22,2.43-7.53,5.77-9.97,10.02-2.43,4.25-3.64,9.11-3.64,14.58,0,5.4,1.22,10.22,3.64,14.47,2.43,4.26,5.76,7.6,9.97,10.02,4.22,2.43,9.06,3.64,14.53,3.64,5.39,0,10.2-1.21,14.42-3.64,4.22-2.43,7.55-5.76,9.97-10.02,2.43-4.25,3.64-9.07,3.64-14.47-.07-5.47-1.32-10.33-3.74-14.58-2.44-4.25-5.74-7.6-9.92-10.02ZM236.74,176.15c-1.69,3.06-4.01,5.5-6.99,7.28-2.97,1.79-6.34,2.69-10.12,2.69s-7.17-.9-10.18-2.69c-3-1.78-5.36-4.22-7.08-7.28-1.72-3.08-2.58-6.57-2.58-10.48,0-3.92.86-7.42,2.58-10.53,1.72-3.11,4.08-5.55,7.08-7.34,3.01-1.79,6.39-2.69,10.18-2.69,3.78,0,7.15.9,10.12,2.69,2.96,1.79,5.29,4.23,6.99,7.34,1.69,3.11,2.53,6.61,2.53,10.53,0,3.92-.84,7.41-2.53,10.48Z"/><path class="d" d="M296.31,138.85c-1.79-1.01-4.4-1.51-7.84-1.51-3.91,0-7.5.94-10.78,2.83-2.53,1.46-4.67,3.33-6.43,5.61v-3.59c0-1.35-.36-2.4-1.07-3.14-.7-.73-1.74-1.11-3.09-1.11s-2.4.37-3.13,1.11c-.75.75-1.12,1.79-1.12,3.14v46.88c0,1.35.37,2.4,1.12,3.14.73.73,1.78,1.11,3.13,1.11s2.38-.37,3.09-1.11c.71-.75,1.07-1.79,1.07-3.14v-30.06c0-3.11.9-5.76,2.74-7.99,1.82-2.23,4.27-3.84,7.34-4.81,3.06-.98,6.6-1.22,10.58-.76,1.07.14,2.04.21,2.88.21s1.58-.21,2.23-.61c.64-.41,1.06-1.09,1.27-2.03.46-1.77-.19-3.16-1.98-4.16Z"/><path class="d" d="M343.29,165.12c-2.94-1.58-6.94-2.82-12-3.69-3.71-.67-6.56-1.43-8.55-2.28-1.99-.83-3.38-1.8-4.15-2.88-.78-1.07-1.17-2.36-1.17-3.84,0-2.16,1.07-3.93,3.24-5.32,2.16-1.38,5-2.07,8.5-2.07,2.77,0,5.22.42,7.39,1.26,2.16.85,4.08,2.18,5.77,4,.8.88,1.8,1.41,2.98,1.62,1.19.2,2.21,0,3.09-.61,1.01-.61,1.56-1.43,1.67-2.48.1-1.04-.22-2.04-.97-2.99-2.02-2.56-4.69-4.61-7.99-6.12-3.3-1.51-7.22-2.28-11.75-2.28-3.58,0-6.9.57-9.96,1.72-3.08,1.14-5.56,2.87-7.45,5.16-1.89,2.3-2.83,5.16-2.83,8.6,0,3.78,1.56,7.02,4.71,9.71,3.14,2.7,8.12,4.62,14.93,5.77,5.26.88,9,2.09,11.18,3.64,2.19,1.55,3.3,3.47,3.3,5.76-.07,2.36-1.2,4.34-3.4,5.92-2.19,1.59-5.61,2.38-10.27,2.38-3.17,0-6.08-.52-8.71-1.57-2.63-1.04-4.69-2.45-6.18-4.2-.73-.81-1.67-1.28-2.79-1.41-1.11-.14-2.21.2-3.29,1.01-.94.75-1.48,1.69-1.62,2.83-.13,1.15.21,2.16,1.02,3.04,2.36,2.56,5.52,4.54,9.46,5.92,3.95,1.38,8.02,2.07,12.2,2.07,4.46,0,8.3-.7,11.54-2.12,3.24-1.43,5.76-3.33,7.55-5.73,1.78-2.4,2.69-5.18,2.69-8.35,0-2.57-.63-4.9-1.88-6.99-1.25-2.1-3.34-3.94-6.27-5.53Z"/><path class="d" d="M410.96,137.94c-1.28,0-2.32.39-3.09,1.17-.78.77-1.17,1.8-1.17,3.08v29.47c0,2.77-.73,5.21-2.23,7.34-1.48,2.12-3.5,3.81-6.07,5.06-2.57,1.25-5.43,1.87-8.6,1.87-3.3,0-6.27-.66-8.91-1.97-2.64-1.32-4.73-3.28-6.28-5.87-1.55-2.6-2.33-5.95-2.33-10.07v-25.82c0-1.21-.41-2.22-1.22-3.03-.8-.81-1.82-1.22-3.03-1.22s-2.23.41-3.04,1.22c-.81.81-1.21,1.82-1.21,3.03v25.82c0,5.6,1.07,10.32,3.24,14.17,2.16,3.84,5.11,6.77,8.86,8.76,3.74,1.99,8.01,2.98,12.8,2.98,4.38,0,8.37-.98,11.94-2.93,2.35-1.28,4.37-2.86,6.07-4.74v2.72c0,1.35.39,2.41,1.17,3.19.77.77,1.8,1.16,3.09,1.16,1.28,0,2.33-.39,3.13-1.16.81-.78,1.22-1.84,1.22-3.19v-46.78c0-1.28-.41-2.31-1.22-3.08-.8-.78-1.85-1.17-3.13-1.17Z"/><path class="d" d="M475.34,187.24l-20.62-25.39,19.71-17.73c.88-.81,1.35-1.7,1.41-2.69.07-.98-.31-1.91-1.11-2.79-.81-.88-1.7-1.35-2.69-1.41-.98-.07-1.91.3-2.79,1.11l-27.34,24.69v-44.64c0-1.21-.39-2.2-1.17-2.98-.77-.78-1.8-1.17-3.08-1.17s-2.21.39-2.99,1.17-1.16,1.77-1.16,2.98v70.76c0,1.22.38,2.21,1.16,2.99.78.77,1.77,1.16,2.99,1.16,1.28,0,2.31-.39,3.08-1.16.78-.78,1.17-1.77,1.17-2.99v-15.8s6.78-6.1,6.78-6.1l20.35,25.04c.75.94,1.64,1.46,2.69,1.56,1.04.1,2.04-.25,2.99-1.06,1.01-.81,1.55-1.72,1.62-2.74.07-1-.26-1.95-1.01-2.82Z"/><path class="d" d="M123.89,230.42s-20.83-27.53-12.61-56.05c5.85-20.3,21.76-31.61,25.51-33.51,3-1.52,6.05-2.34,6.05-2.34,3.3-.9,6.14-1.07,8.07-1.08-2.51,1.64-7.18,4.94-11.78,10.19-27.13,30.95-15.22,82.8-15.22,82.8Z"/></svg>