<svg xmlns="http://www.w3.org/2000/svg" viewBox="0 0 1015.33 1043.89"><defs><path id="a" fill="none" d="m922.63 495.3 3.25.45c-1.04-.27-2.08-.55-3.12-.83-.04.13-.08.26-.13.38"/></defs><path fill="#eaab3d" d="M159.76 264.51C159.4 334.76-4.1 364.35.08 429.9c2.58 40.43 65.42 39.19 99.8 95.52 62.29 102.05 18.56 225.99-21.39 303.68-105.09 204.38 125.67 300.33 316.61 118.34 414.69-395.28 537.58-8.3 577.33-47.05 30.15-29.39-20.29-62.75-22.81-169.66-3.87-164.51 97.32-242.66 55.6-303.68-38.49-56.31-144.81-19.3-163.96-68.44-14.8-37.99 45.29-68.98 76.99-165.39 20.13-61.22 33.19-162.18-5.7-186.77-45.4-28.7-169.59 41.61-215.29 145.43-55.52 126.12 25.26 255.2 7.13 262.34-24.26 9.55-154.72-133.04-107.86-217.4C668.22 67.77 548.96-25.1 489.1 10.74c-48.51 29.04-12.44 103.41-72.71 171.09-37.71 42.35-108.17 76.49-156.83 55.6C193.1 208.9 218.48 99.71 149.78 69.19 97.82 46.11 19.48 80.2 14.34 114.81c-7.55 50.81 145.78 81.61 145.43 149.7Z"/><path fill="#fff" d="M377.96 172.85 484.35 292.2l69.29 149.5 277.48 19.81 94.77 34.24-11.64 16.44-82.1 49.53-232.2-15.73 68.3 151.25 14.82 188.8-53.56-52.78-68.03-77.37-97.82-215.4-159.79-9.31-39.24 2.59s-34.08.19-52.86-13.75c0 0-91.68-.9-89.82-53.75 1.85-52.85 82.16-53.11 82.16-53.11s7.61-10.72 25.16-10.6 64.56 5.99 64.56 5.99l10.5 9.85L415 428.86l-32.03-69.87s-7.56-28.63-10.54-95.06 5.56-91.08 5.56-91.08Z"/><path fill="#2f2e2e" d="M386.91 359.68c30.77 74.57 141.67 317.47 173.18 391.73.78 1.85 4.19.69 3.23-1.33-34.43-72.97-140.27-318.18-175.42-390.81-.27-.56-1.26-.22-1 .41Zm281 340.94c.98 21.19 5.97 57.71 7.87 78.84 1.9 21.2 3.83 42.39 5.93 63.57.07.76 1.4.84 1.35.06-1.1-21.17-2.37-42.32-3.66-63.48-1.29-21.15-5.05-57.74-7.25-78.81-.25-2.36-4.35-2.65-4.24-.18M484.45 298.79c3.16 9.67 8.3 18.95 12.52 28.2 4.2 9.2 8.38 18.41 12.61 27.6 8.87 19.3 17.75 38.6 26.65 57.89 17.66 38.27 110.57 246.95 128.67 285.01.44.93 2.08.36 1.64-.67-16.61-38.34-109.13-246.8-126.18-284.95-8.53-19.08-17.08-38.15-25.63-57.21-4.14-9.23-8.31-18.44-12.48-27.65-4.39-9.71-8.16-20.21-13.59-29.38-1.03-1.74-4.98-1.24-4.19 1.16Zm164.76 551.95c-.48-.52-1.41.11-.91.71 4.45 5.36 7.81 11.1 10.54 17.49.25.57 1.42.28 1.19-.37-2.32-6.66-6.05-12.66-10.82-17.84Zm-3.79-16.69c4.08 7.33 8.17 14.62 12.54 21.78.38.62 1.55.2 1.16-.51-4.01-7.37-8.26-14.57-12.56-21.77-.37-.61-1.52-.19-1.14.5"/><path fill="#2f2e2e" d="M642.99 838.4c1.55 3.82 3.02 7.67 4.48 11.53.29.76 1.74.57 1.44-.26-.74-2.11-1.48-4.21-2.2-6.33 2.53 3.39 5 6.83 7.5 10.23.37.5 1.41.14 1.01-.45-3.47-5.08-7.09-10.09-10.37-15.3-.48-.76-2.28-.47-1.86.57Zm20.26-19.88c.12 8.53.17 17.06.44 25.59-2.57-4.51-5.34-8.92-8.08-13.32-.3-.48-1.19-.16-.9.4 2.58 4.87 5.16 9.75 7.97 14.5.49.83 2.06.25 1.53-.68-.06-.1-.12-.2-.18-.31.35.17.86.05.87-.41.12-6.79.1-13.59.08-20.38 2.53 7.84 4.69 15.61 6.42 23.78.21.98 1.84.71 1.71-.31-1.29-9.85-4.09-20.1-8.23-29.14-.3-.66-1.64-.5-1.63.29Zm9.12 9.86c.14 5.02.28 10.04.51 15.06.03.73 1.3.81 1.28.07-.12-5.02-.33-10.04-.54-15.06-.03-.72-1.27-.8-1.26-.07Z"/><path fill="#2f2e2e" d="M648.06 835.07c.68 3.72 1.28 7.47 2.16 11.15.27 1.13 2.17.83 2-.36-.53-3.75-1.36-7.45-2.09-11.16-.23-1.17-2.3-.87-2.07.38ZM413.09 333.64c6.81 17.66 15.42 34.82 23.13 52.11 7.7 17.28 15.44 34.54 23.09 51.84 15.59 35.21 106.53 240.77 122.15 275.97.23.52 1.15.17.9-.4-15.3-34.97-106-240.26-121.34-275.22-7.6-17.32-15.13-34.68-22.69-52.02-7.66-17.59-14.6-35.76-23.15-52.92-.48-.96-2.53-.49-2.09.64m40.57-26.01c15.59 36.37 31.7 72.51 47.48 108.8 15.76 36.26 106.1 243.32 122.54 279.27.66 1.44 3.16.48 2.5-1.1-15.34-36.43-107.58-242.66-123.6-278.8-16.03-36.17-31.73-72.5-47.95-108.59-.25-.56-1.23-.19-.96.43Zm127.49 406.95c.43 12.41.56 24.9 1.34 37.29-5.73 2.14-11.35 1.86-16.27-2.33-.83-.71-2.37.23-1.46 1.14 4.42 4.47 12.36 6.18 18.14 3.29.44.31 1.21.21 1.2-.43v-.25c.15-.1.3-.18.44-.28.76-.54.21-1.34-.5-1.52-.28-12.28-1.18-24.59-1.8-36.86-.03-.62-1.1-.69-1.08-.06Z"/><path fill="#2f2e2e" d="M623.22 694.24c-1.75 8.23-4.34 16.67-5.35 25.05-10.38-1.77-20.96-2.67-31.41-3.95-.69-.08-.72.85-.06.95 10.5 1.59 21.02 3.58 31.59 4.66.45.37 1.33.34 1.51-.29 2.42-8.49 3.15-17.68 4.67-26.37.1-.55-.85-.58-.96-.06Zm42.8.44c-2.24 3.72-4.1 7.86-5.72 11.94-.09-.05-.19-.1-.3-.13-10.94-3.21-21.89-6.46-32.98-9.13-.64-.15-1.01.67-.34.9 10.74 3.74 21.69 6.91 32.6 10.11.11.03.22.04.32.05 0 .01-.01.03-.02.04-.29.75.98 1.26 1.36.6 2.5-4.32 5-8.96 6.7-13.66.33-.9-1.16-1.49-1.63-.71Zm-69.44 84.41c16.26 22.96 32.57 45.89 48.82 68.87.25.35.97.08.69-.31-16.37-22.9-32.68-45.85-49.04-68.77-.17-.24-.66-.06-.47.21m-5.53-31.99c17.79 26.71 35.57 53.42 53.41 80.09.26.39 1.03.1.74-.33-17.85-26.69-35.76-53.33-53.66-79.98-.17-.26-.68-.07-.49.22m60.63 99.05c-.16-.3-.7-.1-.54.24.95 1.93 1.91 3.86 2.86 5.79-1.2-2.01-2.39-4.02-3.59-6.04-.38-.63-1.57-.2-1.17.52.67 1.2 1.34 2.39 2.01 3.59-.46.06-.87.44-.58.95.12.22.25.44.37.66-.56-.2-1.33.18-.93.78 3.15 4.69 6.28 9.39 9.42 14.08.18.27.5.36.79.32 1.25 2.05 2.51 4.1 3.77 6.15 1 1.79 2.01 3.58 3.01 5.38.32.58 1.39.19 1.05-.47l-2.1-4.08c.07-.15.07-.34-.05-.55-.49-.81-.98-1.61-1.47-2.41-.66-1.28-1.31-2.55-1.97-3.83.12-.15.17-.35.02-.6-.8-1.35-1.6-2.69-2.4-4.04-2.83-5.49-5.67-10.97-8.52-16.45Zm.16-2.92c3.84 6.6 7.59 13.26 11.61 19.75.37.6 1.53.18 1.13-.5-3.84-6.62-7.97-13.07-11.99-19.58-.25-.4-1.02-.12-.76.33Z"/><path fill="#2f2e2e" d="M674.82 821.03c.85 4.52 1.72 9.03 2.6 13.55l.09.89c-.49-1.53-.99-3.06-1.5-4.58-.01-.14-.03-.27-.04-.41-.03-.29-.16-.53-.35-.71-.45-1.32-.9-2.64-1.37-3.95-.33-.92-1.94-.75-1.73.31.22 1.15.47 2.31.7 3.46-.38.23-.64.59-.59 1.09.17 1.89.3 3.79.54 5.68.1 1.09.21 2.18.31 3.27-.35.15-.61.47-.52.93.29 1.44.58 2.89.86 4.33-.1.06-.19.12-.27.19-2.39-7.07-4.87-14.16-8.02-20.84-.31-.67-1.55-.34-1.38.42.2.9.42 1.81.64 2.71-.26-.68-.51-1.36-.78-2.04-.17-.45-1-.37-.87.16 1.35 5.31 2.8 10.61 4.32 15.89-.07 0-.15.02-.22.03-.92-3.28-1.9-6.54-3.05-9.74-.16-.46-.96-.38-.87.16.31 1.79.67 3.57 1.05 5.35-.14.06-.22.19-.17.38.21.76.43 1.51.65 2.27-.83.02-1.65.5-1.73 1.42s-.16 1.84-.23 2.75c-1.44-2.34-2.87-4.68-4.3-7.02-.18-.3-.44-.48-.73-.58l-3.3-5.11c-.83-1.28-3.05-.48-2.41 1.07.53 1.27 1.06 2.55 1.6 3.82a176 176 0 0 0-3.44-5.39c-.27-.41-.98-.16-.77.34.57 1.37 1.16 2.72 1.77 4.08-.55-.37-1.37-.49-2.04-.34-.53-.32-1.08-.62-1.63-.92-2.03-2.89-4.1-5.73-6.25-8.52-.56-.73-2.08-.3-1.54.68 2.55 4.69 5.31 9.29 8.17 13.83-.24.37-.27.85.09 1.4l1.53 2.31c.33.97.66 1.93 1.01 2.89.26.72.96 1.09 1.66 1.15-.1.29-.1.63.09 1.02l3.15 6.16c-.29.14-.53.36-.66.64-3.4-5.91-6.71-11.87-10.43-17.59-.5-.77-1.89-.29-1.46.65.87 1.87 1.77 3.72 2.71 5.56-1.23-.11-2.54.81-1.73 2.1 1.4 2.22 2.81 4.44 4.22 6.66l-1.56-1.68c-3-3.76-6.03-7.47-9.13-11.13-.33-.39-1.06-.18-1.21.24-6.45-6.69-12.95-13.32-19.28-20.03-13.93-14.77-39.91-51.18-54.8-64.99-.37-.34-1.14.15-.78.6 13.02 16.2 40.18 52.2 54.27 67.47 11.7 12.68 23.06 25.93 35.16 38.3 5.78 7.98 11.69 15.88 17.56 23.77 2.02 2 4.04 4 6.07 5.99 1.42-2.65 3.3-6.19 3.67-6.97.35-.73 1.49-.9 2.12-.47 3.16 2.14 5.9 4.68 8.46 7.41.03-.37.07-.73.11-1.09-.47-5.05.1-10.07 1.21-15.02l-.81-3.37c-1.07-5.81-2.21-11.6-3.49-17.32-.11-.49-.46-.8-.9-.95-.28-1.17-.57-2.35-.85-3.52-2.05-8.53-3.67-17.53-6.88-25.71-.09-.23-.44-.34-.66-.26-.23-1.09-.45-2.19-.68-3.28-.12-.56-1.1-.41-.99.18Zm-3.76 32.37c.2.65.39 1.3.59 1.95-.13.03-.26.08-.38.13-.22-.65-.43-1.31-.65-1.96-.05-.17-.1-.34-.14-.51.14.04.29.05.43.06.05.11.1.22.16.33Z"/><path fill="#2f2e2e" d="M567.68 753.16a6074 6074 0 0 0 23.85 33.24c.14.19.54.05.38-.17-7.92-11.1-15.88-22.18-23.88-33.23-.13-.18-.5-.04-.36.16Zm33.79-33.93c8.43 18.37 17.4 36.51 26.13 54.75 8.73 18.23 17.17 36.64 26.23 54.71.17.34.76.11.59-.26-8.43-18.37-17.51-36.47-26.27-54.69-8.77-18.22-17.3-36.57-26.36-54.65-.09-.18-.42-.06-.32.14m18.7-10.8c13.92 39.63 28.4 79.11 42.89 118.54.12.33.75.24.63-.11-14.18-39.56-28.4-79.14-43.14-118.49-.07-.2-.45-.15-.37.07Zm20.34 5.6c9.43 34.88 18.88 69.76 28.55 104.57.08.28.59.21.51-.09-9.45-34.88-19.12-69.71-28.82-104.52-.04-.13-.28-.1-.24.04m16.91-9.5c3.74 35.2 7.69 70.38 11.55 105.57 1.09 9.92 1.88 19.92 3.32 29.79.05.36.75.33.72-.04-1.34-17.39-3.87-34.76-5.82-52.09-1.99-17.67-3.98-35.34-5.98-53.01-1.14-10.1-2.28-20.19-3.45-30.28-.02-.2-.36-.14-.34.06m7.6 6.31c3.91 28.92 7.67 57.86 11.77 86.75.04.31.59.23.55-.1-3.84-28.92-8.03-57.8-12.06-86.7-.02-.15-.28-.11-.26.05"/><path fill="#2f2e2e" d="M658.11 705.58c-5.91-1.4-11.83-2.79-17.75-4.17-5.39-1.26-10.84-2.87-16.32-3.68q.27-1.575.48-3.15c.02-.14-.23-.18-.28-.05-.32 1.04-.62 2.09-.91 3.14-.12.06-.15.2-.08.31-1.72 6.35-2.91 12.89-4.47 19.28-.3-.01-.62.2-.59.57.03.45.09.9.17 1.35.1.67 1.14.51 1.24-.08 1.28-6.95 3.13-13.86 4.34-20.83 5.35 1.82 11.07 2.87 16.55 4.22 5.36 1.32 10.73 2.62 16.1 3.92-.09.08-.19.15-.28.23-.63.51.28 1.27.85.84.4-.3.8-.61 1.19-.91.37-.29.22-.88-.23-.99Z"/><path fill="#2f2e2e" d="M489.82 308.58c16.35 38.21 109.93 246.03 127.38 283.75 16.32 35.28 33.1 70.39 51.03 104.9-.81.02-1.56.48-1.57 1.41-.18 15.46 1.87 31.17 2.97 46.6 1.13 15.92 2.07 31.86 2.59 47.81.52 15.65.68 31.31.48 46.96-.21 15.97-1.37 31.93-1.55 47.89-.05 4.75 7.78 5.23 8.25.48 1.57-15.83 1.49-31.99 1.58-47.89.1-15.98-.18-31.95-.82-47.92-.62-15.33-1.54-30.64-2.98-45.92-1.35-14.39-2.59-29.37-5.9-43.55l.45.87c-.1.45.3.9.81 1.04 1.03.52 2.81-.12 2.31-1.38-15.19-38.47-31.84-76.39-48.98-114.03-17.36-38.13-109.37-247.04-127.83-284.66-2.31-4.71-10.45-1.56-8.23 3.64Z"/><path fill="#2f2e2e" d="m680.42 864.16.24 1.66c-1.62.02-3.18 1.13-2.86 3.12.02.11.04.22.05.33-1.32.31-2.34 1.33-1.9 2.95.36 1.29.7 2.58 1.05 3.87-1.02-.88-2.74-.93-3.95-.35-2.83-4.33-5.68-8.66-8.48-13.01-.58-.9-2.32-.3-1.72.76 1.46 2.6 2.9 5.2 4.33 7.81-.81.48-1.26 1.38-.68 2.5.8 1.54 1.62 3.06 2.43 4.59-.36.64-.43 1.43-.02 2.33 4.77 10.29 9.35 20.67 13.99 31.02.53 1.18 1.84 1.6 3.1 1.47.19.46.38.93.57 1.39.52 1.27 1.86 1.88 3.15 1.9 1.03.95 2.85.83 3.97 0 1.61-.04 3.13-1.11 2.66-3.03-.82-3.35-1.66-6.71-2.5-10.06.01-.22.01-.45-.04-.69-.05-.26-.11-.53-.16-.79.22-.46.34-1.01.27-1.64-.99-9.23-2.05-18.45-3.09-27.67-.18-1.57-1.9-2.21-3.43-2q-.645-3.765-1.26-7.53c-.52-3.27-6.23-2.41-5.74 1.04Zm-262.7-566.37c-1.83 11.32-2.03 23.03-2.7 34.47-.08 1.38 2.2 1.49 2.38.14 1.49-11.37 3.49-22.93 3.81-34.4.06-2.04-3.17-2.16-3.49-.2Zm71.95 1.93c-7.39-6.26-14.75-12.54-22.04-18.9.01-.06.03-.12.04-.18.5-2.3-2.94-4.07-4.26-1.87-4.78 8-7.77 18.18-10.31 27.14-.17-.17-.38-.34-.65-.48-9.15-4.74-19.95-7.24-29.75-10.37-1.22-.39-2.47 1.38-1.1 1.99 9.29 4.16 18.95 9.5 28.81 12.06 1.23.32 2.49-.43 2.95-1.39.79.8 2.49.74 3.14-.49 3.75-7.21 8.14-15.62 10.43-23.69 6.61 6.14 13.16 12.34 19.69 18.57 1.72 1.64 5-.72 3.05-2.38Z"/><path fill="#2f2e2e" d="M413.87 331.21c-5.37-3.37-11.02-6.32-16.56-9.4-1.39-.78-3.38-.4-4.03 1.18-4.07 9.96-9.1 20.06-11.92 30.46-.38 1.39 1.75 2.36 2.52 1.11 5.27-8.5 9.13-18.13 13.27-27.29 4.65 2.57 9.29 5.17 14.07 7.46 2.47 1.19 5.37-1.81 2.65-3.52m-58.96-214.16c-1.97-1.79-5.94-.82-5.43 2.42 1.23 7.84 4.07 15.64 6.06 23.33 1.93 7.45 3.8 14.92 5.69 22.38 1.9 7.46 3.78 14.92 5.69 22.38 1.85 7.2 3.4 14.87 6.47 21.66.65 1.44 3.72 1.13 3.61-.64-.46-7.4-2.73-14.85-4.49-22.04-1.83-7.47-3.7-14.94-5.54-22.41-1.85-7.47-3.72-14.93-5.54-22.41-.19-.79-.37-1.59-.56-2.39 10 16.87 20.18 33.64 30.66 50.21 1.2 1.9 4.75.66 3.6-1.59-11.91-23.25-24.43-46.2-37.15-69.02-.68-1.22-1.85-1.79-3.08-1.89Z"/><path fill="#2f2e2e" d="M386.68 180.89c-5.31-16.05-13.42-31.31-22.59-45.36-1.7-2.61-7.85-1.74-6.48 1.98 3.02 8.24 6.04 16.52 9.13 24.77 1.17 5.05 2.33 10.11 3.56 15.16-.14.38-.19.82-.09 1.32 1.41 7.02 2.7 14.06 4.47 21 .17.67.54 1.15 1.01 1.49.09.36.18.72.26 1.08.35 1.51 1.66 2.15 2.95 2.09.39.42.78.84 1.17 1.25.22.32.43.65.65.97.27.4.64.66 1.05.8 1.31 1.33 2.66 2.61 4.09 3.8 1.43 1.18 4.04-.35 2.51-1.96-1.24-1.31-2.56-2.53-3.92-3.71.08-.58.16-1.17.21-1.75 1.02 1.59 3.72.87 4.02-.93l1.05-6.43c.33.35.66.69.99 1.04 1.02 1.07 4 .75 3.85-1.15-.12-1.47-.24-2.92-.43-4.38-.19-1.45-2.18-1.83-3.38-1.2l-.09-1.56c1.21-.4 2.24-1.35 2.24-2.66v-.58c1.16-.76 1.79-2.04.76-3.39-.37-.49-.75-.98-1.12-1.47-1.38-1.81-4.71-2.17-5.89-.22Zm-2.1 14.84c.28.07.56.11.85.13-.05.32-.1.63-.16.95-.19-.3-.38-.61-.57-.91-.04-.06-.08-.12-.13-.17Z"/><path fill="#2f2e2e" d="M368 194.46c-.1 27.27.03 54.47 1.93 81.68 1.85 26.6 3.94 53.67 9.31 79.82.29 1.42 3.08 1.37 2.96-.18-2.09-26.79-5.47-53.4-6.84-80.26-1.37-26.84-2.23-53.84-1.21-80.7.13-3.55-6.13-3.89-6.15-.36m117.28 90.81c-4.6-6.34-9.53-12.47-14.63-18.42-6.74-7.86-14.02-15.25-21.53-22.4-1.48-1.79-2.96-3.58-4.45-5.37-8.33-9.95-16.74-19.86-25.47-29.47-9.11-10.02-18.11-20.64-27.94-29.95-3.03-2.87-8.64.74-5.48 4.28 8.86 9.91 18.61 19.12 27.6 28.95 8.78 9.6 17.59 19.15 26.18 28.91 10.6 12.06 20.99 24.31 31.28 36.65 2.7 3.89 5.34 7.82 7.94 11.79 4.28 6.52 7.86 13.71 12.68 19.83 2.86 3.62 8.96-.03 7.14-4.27-3.14-7.33-8.66-14.11-13.33-20.54Z"/><path fill="#2f2e2e" d="M369.64 187.54c-2.12 6.73-1.68 14.73-2.03 21.74-.37 7.3-.64 14.59-.7 21.9-.11 14.95.37 29.85 1.33 44.77 1.88 29.11 3.39 59.25 10.86 87.56.23.86 1.38 1.2 2.18.93 2.52 6.45 5.62 12.8 8.26 19.01 4.22 9.94 8.65 19.8 12.99 29.69 8.42 19.16 16.94 38.27 25.57 57.34 17.53 38.75 110.46 247.83 128.32 286.44.78 1.69 2.2 2.58 3.77 2.84 1.83 2.58 3.87 5.05 5.71 7.45 3.89 5.06 7.93 9.99 11.99 14.92 8.39 10.18 17.12 20.06 25.83 29.96 17.63 20.05 34.54 40.83 52.64 60.44 3.23 3.5 9.41-.73 6.13-4.79-16.53-20.5-34.4-40.01-51.43-60.11-8.31-9.8-16.59-19.62-25.16-29.2-4.52-5.05-9.08-10.07-13.79-14.94-1.87-1.93-3.78-4.01-5.77-6 1.07-1.33 1.47-3.14.51-5.2-17.72-38.3-111.08-246.82-129.12-284.97-8.95-18.93-17.99-37.81-27.15-56.64-4.58-9.41-9.09-18.87-13.75-28.24-4.74-9.53-9.05-20-15.17-28.72-.11-.16-.26-.3-.41-.41-2.28-25.96-6.11-51.74-6.59-77.89-.27-14.58-.2-29.19.24-43.77.22-7.3.43-14.6.78-21.89.33-7.07 1.8-14.8.73-21.81-.47-3.1-5.87-3.28-6.78-.4Z"/><path fill="#2f2e2e" d="M401.42 248.66c6.17 13.63 11.33 28.45 18.96 41.33.73 1.23 3.49.74 2.9-.89-5.22-14.17-13.54-27.63-20.29-41.14-.45-.89-2.02-.29-1.57.7m-19.61-31.4c3.76 31.19 7.37 62.4 11.35 93.57.14 1.1 2.07.81 1.94-.35-3.66-31.2-7.68-62.35-11.56-93.53-.12-.98-1.85-.73-1.73.31m-2.73 11.16c.86 21.53 2.15 43.04 3.47 64.55.06 1.05 1.89 1.18 1.85.11-.73-21.51-1.5-43.02-2.7-64.5-.08-1.5-2.69-1.67-2.63-.15Zm23.79 45.26c3.53 9.64 6.8 19.43 10.75 28.91.44 1.06 2.62.52 2.21-.68-3.29-9.65-7.31-19.09-11.02-28.58-.4-1.02-2.34-.76-1.94.35m-3.49-58.86c13.07 21.87 25.88 43.95 39.56 65.45.85 1.33 3.42.41 2.53-1.12-12.91-22.01-26.73-43.51-40.25-65.15-.61-.98-2.5-.29-1.84.81Zm60.95 46.4c-7.24-8.87-14.75-17.54-22.62-25.86-15.1-15.96-31.17-31.87-49.18-44.55-1.24-.88-3.17.75-1.95 1.98 1.3 1.31 2.61 2.6 3.93 3.9-.74-.03-1.48.77-.86 1.53 11.15 13.72 22.32 27.41 33.62 41 11.22 13.49 21.87 28.04 34.07 40.65 1.33 1.37 4.68-.1 3.31-1.97-10.27-14.02-22.69-26.84-34-40.04-11-12.85-22.12-25.6-33.26-38.32 13.3 13.07 26.88 25.78 39.33 39.74 7.19 8.05 14.19 16.26 20.89 24.72 6.89 8.7 12.86 18.25 20.06 26.66 2.39 2.79 8.15-.02 6.08-3.63-5.26-9.2-12.73-17.6-19.41-25.8Z"/><path fill="#2f2e2e" d="M371.38 188.54c-2.5 6.65-2.32 14.85-2.92 21.88-.64 7.6-1.11 15.22-1.41 22.84-.6 15.54-.49 31.11.37 46.64 1.68 30.54 6.05 60.88 13.29 90.6.3 1.25 1.33 2.07 2.54 2.49 2.38 1.24 6.38-.28 5.96-3.66-.29-2.39-.69-4.75-1.09-7.12-.15-.89-.67-1.56-1.37-2.02-5.7-26.85-9.4-54.11-10.73-81.53-.72-14.95-.8-29.93-.21-44.88.3-7.62.78-15.24 1.42-22.84.61-7.13 2.43-14.84 1.66-21.96-.39-3.61-6.4-3.43-7.52-.44ZM311.7 487.69c-2.91 6.45-5.54 13-8.2 19.54-2.46 6.04-5.84 12.37-6.94 18.77-.22 1.28 1.66 1.27 2.23.44 3.86-5.61 6.06-12.53 8.68-18.66 2.69-6.28 5.4-12.55 7.85-18.9.82-2.14-2.73-3.14-3.61-1.19Zm-3.13-44.56c1.04 12.11 2.18 24.8 5.24 36.73.23.91 1.63.63 1.62-.2-.14-12.07-2.32-24.72-4.48-36.8-.24-1.34-2.48-.94-2.38.27m-21.51-37.88c6.74 9.41 14.51 18.43 21.94 27.36.82.98 2.53-.14 1.81-1.14-6.69-9.35-13.35-19-20.85-28.02-1.31-1.58-4.05.19-2.9 1.8m6.76 127.16-12.35-.96c-.7-.05-1.24.28-1.51.72-8.69-.2-17.41-.47-26.16-.68.42-.28.58-.87-.07-1.02-2.42-.56-4.86-1.01-7.31-1.45 0-.49-.35-.95-1.17-1.03-3.13-.32-6.25-.64-9.39-.96-1.94-.2-2.71 2.47-.54 2.65 5.96.49 11.84 1.49 17.78 1.94-.57.32-.69 1.16.2 1.21 13.38.83 26.71 1.49 39.93 2.51 2.11.16 2.97-2.74.6-2.93ZM248 505.6c-3.9 5.1-7.2 10.54-10.8 15.82-.46.67.88 1.21 1.33.6 3.78-5.19 7.88-10.22 11.35-15.56.63-.97-1.23-1.71-1.88-.86m-.02-29.48c-.53 8.94-1.11 17.91-.87 26.89.02.76 1.45.63 1.52-.03 1.02-8.9 1.26-17.9 1.53-26.89.03-1.07-2.12-.94-2.18.03m-8.58-45.45c1.48 8.95 3.13 18.5 6.33 27.19.31.83 1.72.34 1.66-.37-.72-8.98-3.25-18.43-5.71-27.32-.31-1.12-2.45-.51-2.28.5m-7.92-9.11c2.15 1.04 4.3 2.09 6.45 3.13.93.45 1.86-.64.83-1.13-2.16-1.02-4.32-2.05-6.48-3.08-.7-.33-1.55.71-.79 1.08Z"/><path fill="#2f2e2e" d="M290 408.31c-7.12-1.06-14.29-1.97-21.47-2.95-7.11-.96-14.57-2.52-21.74-2.7-1.15-.03-2.32.73-2.91 1.63-5.58-.34-11.16-.58-16.74-.66-1.02-.01-1.51 1.21-.3 1.44 20.7 3.98 41.7 5.69 62.16 8.04 3.46.4 4.87-4.23.99-4.81Zm126.42 17.97c-23.53-2.03-47.3-4.06-71.35-6.03-16.32-1.34-32.79-2.82-49.36-3.63-1.24-.06-1.81 1.56-.36 1.76 28.83 3.97 57.51 6.47 85.66 9.26 12.65 1.25 25.22 2.51 37.72 3.75-.81-1.68-1.59-3.38-2.31-5.11m409.35 33.16c-7.7-1.3-166.49-13.72-269.16-21.72.88 1.97 1.75 3.94 2.61 5.92 104.02 8.35 256.94 20.41 265.55 20.6 2.94.06 4.49-4.21 1.01-4.8Zm8.29 9.18c13.67 4.68 27.25 9.26 40.74 13.78 6.61 2.22 13.19 4.43 19.76 6.63 6.38 2.14 12.9 5.01 19.46 6.18 1.62.29 2.58-2.08.99-2.86-6.05-2.96-13.15-4.43-19.59-6.45l-19.94-6.25c-13.43-4.21-26.96-8.43-40.61-12.61-1-.31-1.92 1.2-.79 1.59Zm80.18 43.56c-7.01 2.73-13.67 6.7-20.4 10.13-6.82 3.48-13.65 6.98-20.48 10.54-13.36 6.95-27.45 13.44-40.23 21.71-.52.33-.11 1.08.47.86 14.52-5.58 28.24-13.31 41.94-20.14 6.7-3.34 13.34-6.71 19.97-10.08 6.7-3.4 13.78-6.46 20.06-10.49 1.48-.95.34-3.17-1.33-2.52Zm-467.05-12.74c-44.09-2.95-77.07-5.21-84.75-5.89-15.87-1.43-31.85-2.82-47.96-4.14-.9-.07-1.28 1.16-.26 1.27 18.09 1.93 70.13 5.84 133.81 10.4-.28-.54-.56-1.08-.83-1.63Zm387.63 28.04c-10.94-1.64-22.19-2.21-33.32-3.27-11.24-1.07-22.55-2.15-33.92-3.24-10.68-1.02-93.13-6.49-181.05-12.29.34.74.68 1.47 1.02 2.21 97.63 6.81 188.14 13.1 208.86 15.16 12.68 1.26 25.4 3.1 37.95 3.67 1.39.06 2.07-1.99.47-2.23Zm4.06-44.38c-28.88-2.94-153.07-12.81-272.54-22.3.33.82.66 1.63.98 2.45 118.97 9.75 242.23 19.72 270.94 22.76 1.83.19 2.67-2.7.61-2.91ZM428.4 449.79c-45.08-3.63-80.6-6.56-97.02-8.09-.86-.08-1.22 1.1-.25 1.21 16.52 1.82 52.52 5.01 98.16 8.89-.31-.67-.6-1.33-.89-2Z"/><path fill="#2f2e2e" d="M836.75 482.72c5.91 5.84 12.1 11.48 18.43 16.81-6.19 8.01-11.66 16.72-17.35 25.13-.39-.13-.79-.25-1.2-.34-1.33-.29-2.25 1.84-.83 2.38 6.54 2.5 8.12 10.75 5.13 16.34-3.68 6.88-12.85 9.89-19.87 12.52-.56.21-.47 1.18.21 1.02 8.86-2.15 19.78-5.39 23.1-14.69 2.11-5.9.59-13.91-5.42-16.78 6.12-7.92 12.54-15.75 18.13-24 .16.13.32.27.48.4.67.55 1.91-.49 1.27-1.16l-.72-.75c.12-.18.24-.35.36-.53.78-1.2-1.15-2.08-2-1.17a314 314 0 0 0-18.02-17.14c-1.16-1.02-2.81.86-1.69 1.97Zm-.06-14.5c1.61 2.53 1.01 6.3-2.02 7.24-.94.29-.74 1.8.34 1.65 4.79-.67 7.48-7.12 3.54-10.57-1.04-.91-2.54.61-1.86 1.68m-17.92-8.62c-.76-.18-1.34 1.11-.48 1.38 1.34.42 2.67.74 4.05.99.66.12 1.14-.92.42-1.19-1.32-.48-2.62-.87-3.98-1.19Z"/><path fill="#2f2e2e" d="M859.02 520.21c-6.46.92-12.95 1.81-19.4 3.02-.72.14-.76 1.22.07 1.13 6.53-.68 12.98-1.68 19.42-2.64.98-.15.99-1.67-.09-1.52Zm-534.33-79.7c-5.09-.53-10.76-.31-15.85-.05-.93.05-1.09 1.28-.07 1.44 4.92.78 10.4 1.56 15.31 1.57 2 0 3.07-2.7.61-2.96m-60.66 53.3c.17 13.81-5.58 26.95-16.41 36.78-.64.58.42 1.41 1.11.91 12.81-9.33 19.67-23.25 18.27-38.05-.16-1.68-2.99-1.09-2.97.36m-8.6-67.26c9.5 16.97 13.48 34.19 9.39 51.97-.2.88 1.31.88 1.54.14 5.2-16.94 3.69-37.08-6.24-53.69-1.45-2.43-6.02-.79-4.7 1.57Zm-9.17-15.04c2.41 2.3 5.14 4.34 7.76 6.45.85.68 2.4-.51 1.57-1.26-2.46-2.24-4.85-4.57-7.52-6.64-.99-.77-2.74.56-1.81 1.45m39.41 64.46c-2.05 10.39-3.79 20.93-4.89 31.47-.1 1 1.51 1.01 1.73.15 2.6-10.31 4.62-20.83 6.28-31.33.28-1.79-2.8-1.87-3.12-.3Zm-11.57-63.1c2.09 6.26 6.05 12.38 9.22 18.31 3.21 6.03 6.17 12.14 9.45 18.1.76 1.38 3.23.46 2.62-.89-2.88-6.36-6.12-12.64-9.11-19-2.8-5.96-5.19-12.38-9.04-17.99-1.09-1.58-3.61.03-3.14 1.46Z"/><use href="#a"/><use href="#a"/><use href="#a"/><use href="#a"/><path fill="#2f2e2e" d="M299 414.94c1.03.62 2.06 1.28 3.11 1.92-1.22-.02-2.44-.06-3.66-.14-1.73-.12-2.5 2.21-.5 2.44 3.61.42 7.17 1.39 10.8 1.83 3.63.43 7.25.85 10.87 1.24 7.23.78 14.43 1.57 21.61 2.28 14.32 1.42 28.54 2.79 42.67 4.11 11.75 1.1 23.43 2.19 35.06 3.27-1.06-2.17-2.06-4.37-2.97-6.62-32.05-2.58-56.44-4.55-67.87-5.5-8.03-.67-16.1-1.29-24.19-1.89-3.92-.29-7.85-.59-11.79-.84-1.28-.08-2.57-.12-3.85-.13-1.47-1.59-3.26-2.97-4.94-4.41-2.87-2.45-5.76-5.54-9.11-7.45-2.69-1.53-7.43 1.4-4.72 3.81s6.3 4.16 9.49 6.08Zm169.18 122.48c-54.79-2.8-105.77-5.41-122.67-6.47-16.81-1.05-33.75-2.02-50.82-2.83-1.3-.06-1.87 1.69-.38 1.83 2.6.24 5.21.47 7.81.7-.93.02-1.86.02-2.78.05-.54.02-.92.27-1.13.61-.25-.07-.53-.12-.83-.16-7.54-.84-15.15-1.43-22.81-1.89.03-.02.06-.03.08-.04 2.91-1.84 5.97-3.77 8.32-6.12.82-.82-.29-2.11-1.45-1.61-3.26 1.37-6.21 3.4-9.02 5.35-1.02.71-.86 1.72-.18 2.29-7.79-.44-15.61-.77-23.43-1.07a2.6 2.6 0 0 0-.9-.21c-5.52-.38-11.19-1.01-16.74-1.05-.92 0-1.82 1.26-.58 1.58 2.04.53 4.12.97 6.21 1.38-.27 1.03.29 2.11 2.09 2.31 19.11 2.1 38.3 4.43 57.15 5.18 2.74.11 4.5-2.15 4.16-3.96 14.18 1.99 28.64 2.56 42.69 3.49 14.18.93 28.26 1.86 42.26 2.7 10.42.63 45.18 2.36 86 4.36-1-2.18-2.01-4.32-3.05-6.42m488.97-37.08c-.85.08-1.7.19-2.55.32-.05-.52-.39-.99-1.11-1.15-10.46-2.37-21-4.89-31.66-6.92-.21-.1-.44-.19-.72-.24-.24-.3-.58-.57-1.06-.79-7.36-3.41-15.52-5.54-23.24-8.17-7.85-2.67-15.74-5.37-23.68-8.01-7.78-2.59-15.58-5.22-23.43-7.81-6.03-1.99-12.29-4.44-18.59-6.06-.05-1.11-.74-2.12-2.23-2.27-25.68-2.6-154.14-13.08-272.8-22.67 1.05 2.33 2.08 4.66 3.1 7.01 101.62 7.93 252.04 19.61 258.48 20.18.43.62 1.17 1.05 2.25 1.03 2.85-.05 5.7-.06 8.53-.17 5.98 2.77 12.52 4.71 18.55 6.91 7.95 2.91 15.89 5.72 23.78 8.56 7.66 2.76 15.31 5.45 22.93 8.13 4.49 1.58 8.99 3.37 13.52 4.98.04.49.27.96.8 1.32s1.07.72 1.6 1.08h-.04c-1.83.26-3.32 3.51-.89 4.2.3.08.59.17.88.25-1.66.8-1.74 3.3-.07 3.91-.85.43-1.69.86-2.54 1.28-2.01 1.02-2 4.41.8 4.06 2.07-.26 4.14-.51 6.21-.77-.44.13-.88.25-1.32.38-2.1.6-1.93 3.74 0 4.15-14.11 7.5-28.12 15.44-42.29 23.25-7.54 4.16-15.08 8.39-22.63 12.65a481 481 0 0 0-12.01 7c-1.59.96-3.87 1.98-5.83 3.23-.22-.73-.85-1.31-2.05-1.43-11.45-1.15-23.09-1.48-34.71-2.12-4.45-.24-154.43-9.22-159.25-9.49-5.69-.38-16.41-.99-30.48-1.74 1.01 2.03 2.04 4.05 3.07 6.06 17.47.87 30.43 1.53 35.65 1.83 10.83.63 165.35 9.9 175.34 10.32.14.85.83 1.52 2.16 1.32 2.17-.32 4.35-.61 6.5-1 .05 0 .09-.02.14-.04-.1.33.08.62.44.68 3.47.59 7.88-2.76 10.86-4.23 3.97-1.95 7.91-3.97 11.82-6.02 8-4.2 15.94-8.45 23.82-12.72 15.58-8.43 31.19-16.61 46.36-25.26 1.37-.78 1.51-2.3.95-3.46l3.62-.6c.52-.09 1.02-.43 1.41-.89 4.52-.73 9.04-1.91 13.35-2.86 6.23-1.38 12.76-2.42 18.71-4.59 1.46-.53 1.18-2.8-.51-2.63Zm-34.52-5.04c.06-.12.1-.25.13-.38 1.04.28 2.08.56 3.12.83z"/><path fill="#2f2e2e" d="M278.8 403.79c-5.68-.53-11.37-1-17.08-1.43-8.6-.64-17.6-1.74-26.39-2.03-5.35-1.31-11.07-1.34-16.3-.32-4.4.85-8.51 2.39-11.88 4.86-1.65 1.2-3.12 2.56-4.28 4.12-.36.48-.59.87-.76 1.23-6.54.15-13.15.76-19.65 1.85-18.09 1.85-34.89 8.18-46.36 20-3.89 3.43-7.29 7.27-10.05 11.57-6.99 10.9-9.68 24.24-5.94 36.91 4.04 13.69 16.04 24.92 30.7 31.72 17.24 7.99 36.66 10.47 55.43 11.02 4.26 2.01 8.65 3.78 13.12 5.36 1.59 1.04 3.28 1.96 5.09 2.76 5.54 2.44 11.63 3.73 17.64 3.54 6.32 1.35 12.68 2.42 18.99 3.29 10.02 1.38 20.22 2.31 30.21 2.26 7.42-.04 15.82-.89 20.98-5.65 2.74-2.53-1.53-5.15-4.39-3.66-4.99 2.6-9.96 3.47-15.49 3.63 2.92-1.82 6.13-3.57 8.64-5.74 1.41-1.22.43-3.15-1.16-3.73-.79-.92-2.43-1.37-3.74-.47-3.51 2.4-7.44 4.61-10.2 7.68-.73.82.11 1.75 1.17 1.6.1.23.25.45.44.65h-.37c-9.37-.29-18.8-1.15-28.18-2.53-3.6-.53-7.19-1.16-10.76-1.86-.38-.35-.95-.57-1.77-.57-.37 0-.73 0-1.09-.01-7.94-1.65-15.81-3.65-23.69-5.77-.88-.47-1.74-.96-2.57-1.49-1.25-.79-2.34-1.72-3.57-2.53-.05-.03-.1-.06-.14-.08 4.27-.25 8.49-.64 12.6-1.14-.48 1.85-.97 3.69-1.47 5.53-.23.84 1.17.86 1.54.3 1.34-2.08 2.57-4.22 3.68-6.4.47-.26.73-.8.61-1.23 7.63-15.58 9.84-33.37 8.95-50.57-1.06-20.53-7.13-41.18-17.97-60.4-.35-.63-.96-1.2-1.69-1.57 1.12-.15 2.25-.24 3.37-.27.36.85 1.19 1.56 2.58 1.78 3.74.59 7.57.75 11.38.88 1.16.48 2.3 1.02 3.41 1.62 1.74.94 3.73 0 4.16-1.31 4.98.26 9.95.53 14.91.75 5.48.25 10.94.45 16.38.59 5.25.14 10.87.73 15.97.02 1.38-.19 2.54-2.31.58-2.83-5-1.35-10.45-1.43-15.59-1.92Zm-44.39 62.83c1.2 17.06-1.69 33.42-5.78 49.65-19.49-.69-38.98.68-58.53-4.66-16.87-4.6-32.91-13.97-40.05-28.25-2.4-4.8-3.73-9.84-4.1-14.88-.04-18.53 14.47-35.33 33.57-43.42 14.34-6.07 29.95-7.93 46.03-8.57 2.12.24 4.24.53 6.35.87.71.35 1.54.47 2.34.4 2.58.48 5.14 1.04 7.67 1.67 7.14 15.27 11.38 31.21 12.5 47.18Zm-15.15-52.56-1.64-.33c-.01-.7.11-1.4.43-1.99.42.77.81 1.54 1.21 2.31Zm-9.06-2.72c-.46-.63-1.24-1.08-2.4-1.14 1.62-1.09 3.29-2.12 5.07-3.01-1.29 1.15-2.23 2.56-2.67 4.15"/><path fill="#2f2e2e" d="M181.71 505.63c-4.62.57-9.01.95-13.77.29-.83-.12-1.44 1.07-.48 1.3 4.91 1.16 10.03 1.53 14.79.33 1.28-.32.91-2.09-.54-1.91Zm-1.87-2.39c-2.67-.13-5.36.03-8.02.08-1.17.02-1.42 1.78-.08 1.79 2.67.03 5.37.16 8.02 0 1.2-.07 1.5-1.81.09-1.88Zm-2.18-2.51c-.45 0-.87.21-.95.6-.07.33.24.73.68.74.93.02 1.86.03 2.8.05.45 0 .87-.21.95-.6.07-.33-.24-.73-.68-.74-.93-.02-1.86-.03-2.8-.05m10.26-50.26c-.21 16.53-3.07 32.19-8.7 47.7-.27.76 1.25.96 1.54.3 6.57-15.12 9.8-31.75 9.32-48.24-.03-1.19-2.13-.8-2.15.24Zm-4.47-19.83c.11.09.23.18.34.27-.51.49-.82 1.12-.78 1.81.07 1.28 1.24 2.37 2.74 2.54.84.09 1.78-1 .82-1.5-.82-.42-1.7-1.47-.45-1.82.86-.24 1.06-1.19.35-1.72l-1.53-1.14c-1.1-.82-2.6.66-1.5 1.55Zm126.61 40.18c-2.47 18.86-8.38 37.12-17.86 53.95-.7 1.23 1.54 1.79 2.18.69 9.85-16.95 16.07-35.21 18.16-54.4.16-1.43-2.31-1.52-2.48-.24m-17.55 23.24c-1.32.11-2.39 1.15-2.45 2.27-.02.32.07.65.23.95-.02.28.04.56.19.81.47.74.94 1.48 1.4 2.22.42.67.9 1.11 1.78 1.29.16.03.34.05.52.06.02 0 .03.01.04.02 1.05.41 2.28-.07 2.94-.72 1.11-1.09 1.18-2.66.36-3.95-.06-.16-.11-.32-.2-.48-.87-1.71-2.74-2.63-4.83-2.45Zm-19.3-1.25c-.72.08-1.34.48-1.56 1.09-.02.06-.03.12-.05.19 0 .02-.02.03-.03.05-.55.93-.42 2 .25 2.92.72.99 1.95 1.37 3.23 1.28 1.15-.08 2.09-1.02 2.14-1.98.01-.25-.04-.49-.13-.71.04-.04.08-.07.12-.11.46-.54.68-1.4.08-2-1.08-1.08-2.74-1.23-4.05-.71Zm-26.46-.94c-.45 1.84 2.9 1.93 3.31.3.45-1.84-2.9-1.94-3.31-.3"/><path fill="#2f2e2e" d="M300.3 418.35c6.17 9.17 12.01 18.45 18.25 27.51-.58.39-1.05.92-1.28 1.57-1.24 3.53-.89 7.72-1.1 11.45-.2 3.58-.29 7.17-.4 10.76-.12 3.8-.18 7.6-.19 11.4 0 2.49-.79 5.87.89 8.11-.27.49-.54.99-.8 1.49.02-.68-.42-1.32-1.46-1.36-22.4-.81-45.14-3.5-68.01-4.97-1.01-.07-1.44 1.28-.29 1.4 22.74 2.42 45.45 3.6 67.67 6.61.55.07 1.02-.07 1.37-.33-3.49 6.84-6.18 14.15-9.26 21.13-3.44 7.78-7.21 15.55-8.8 23.85-.24 1.26 1.83 1.8 2.58.82 5.46-7.21 9.03-15.31 12.81-23.3 3.78-8 8.21-15.96 11.16-24.24.78-2.2-1.34-3.23-3.47-3.1.66-1.93.6-4.22.85-6.18.48-3.79.92-7.59 1.29-11.4.38-3.81.76-7.61 1.05-11.43.16-2.12.53-4.36.62-6.58.43-.23.72-.66.5-1.09-.17-.35-.36-.7-.53-1.05-.05-.68-.12-1.36-.27-2.03-.26-1.15-.96-1.79-1.81-2.06-5.13-9.86-10.76-19.59-16.07-29.47-1.79-3.33-7.43-.68-5.3 2.49"/><path fill="#2f2e2e" d="M302.33 414.83c3.07 5.64 6.32 11.2 9.47 16.78 2.85 5.05 5.3 11.11 9.41 15.52 1.08 1.16 3.61.34 3.29-1.14-1.2-5.48-4.8-10.99-7.4-16.17-2.84-5.68-5.6-11.4-8.55-17.07-1.75-3.35-7.92-1.05-6.22 2.08m155.13 103.14c-45.65-2.51-86.2-4.74-96.11-5.42-.84-.06-1.2 1.12-.25 1.2 9.98.81 51.19 3.25 97.34 5.92-.33-.57-.65-1.13-.98-1.7m136.97 7.75c.28.59.56 1.19.84 1.78 6.6.38 11.4.67 13.84.83 1.04.07 1.51-1.47.33-1.57-2.58-.23-7.8-.58-15-1.03Zm304.72-6.46c-16.19 5.56-32.5 11.22-48.85 17.08-.78.28-.42 1.42.41 1.13 16.44-5.64 32.7-11.41 48.8-17.18.71-.25.38-1.29-.36-1.03m-20.82 1.2c-11.2 2.84-22.4 5.86-33.66 8.94-.6.16-.46 1.21.21 1.04 11.26-2.81 22.45-5.63 33.53-8.61.83-.22.87-1.61-.08-1.36Zm23.9-13.78c-9.99 2.14-20.02 4.29-30.11 6.45-.64.14-.66 1.18.06 1.03 10.08-2.18 20.12-4.34 30.1-6.5.6-.13.62-1.11-.06-.97Zm-2.32-3.11c-13.1.9-26.26 2.04-39.52 3.08-.69.05-.69 1.11.06 1.05 13.26-.95 26.45-1.81 39.53-2.87.82-.07.82-1.32-.07-1.26m-3.73-4.1c-10.69-.46-21.47-.37-32.28-.61-.72-.02-1.06 1.14-.24 1.16 10.79.26 21.55.85 32.22.89.87 0 1.33-1.4.3-1.44m8.16-4.5c-17.84-3.08-36.01-5.3-54.28-7.74-.98-.13-1.42 1.39-.33 1.56 18.22 2.8 36.3 5.79 54.25 7.87 1.04.12 1.52-1.48.36-1.68Zm-60.96-17.27c-1.19-.2-1.72 1.65-.4 1.89 17.38 3.08 34.59 6.25 51.71 8.85 1.11.17 1.61-1.55.38-1.79-17.02-3.28-34.29-6.04-51.69-8.95m-6.97-7.56c-1.9 2.37-3.39 5.27-4.81 7.94-.6 1.12.19 2.15 1.33 2.41 2.11.49 4.09 2.49 6.09 3.4.76.35 1.92-.74 1.25-1.44-1.31-1.35-3.29-2.44-4.62-3.86 1.6-2.05 3.24-4.21 4.41-6.48 1.17-2.28-2.18-3.8-3.64-1.98Zm68.29 40.79c-9.34 1.9-18.7 4-28.05 6.24-.87.21-.92 1.62.08 1.41 9.42-1.93 18.79-3.99 28.05-6.22.87-.21.93-1.63-.08-1.43m-74-6.96c-7.85.37-15.72.81-23.62 1.25-.88.05-.87 1.37.08 1.32 7.91-.4 15.78-.8 23.62-1.26.87-.05.86-1.35-.08-1.31m16.38-.3c-2.12.46-4.23.91-6.35 1.37-.76.16-.79 1.37.07 1.21l6.36-1.2c.88-.17.88-1.59-.08-1.38m-16.64 38.83c-8.24.52-16.5 1.13-24.8 1.72-.76.05-.75 1.19.07 1.14 8.3-.53 16.57-1.04 24.8-1.63.81-.06.81-1.29-.08-1.23Zm9.94.44c-3.16.41-6.3.98-9.45 1.5-.99.16-1 1.7.1 1.52 3.15-.52 6.32-.98 9.44-1.6.9-.18.95-1.56-.09-1.42m-8.86 7.89-12.57 1.84c-.74.11-.75 1.25.07 1.13l12.56-1.84c.74-.11.74-1.25-.07-1.13Zm-2.1 4.27c-5.14.4-10.28.84-15.44 1.26-.87.07-.87 1.38.08 1.31 5.16-.38 10.32-.74 15.45-1.14.94-.07.94-1.5-.09-1.42Z"/><path fill="#2f2e2e" d="M322.61 443.82c-1 3.87-.89 8.18-1.16 12.19-.29 4.31-.55 8.63-.83 12.94-.51 7.98-1.29 15.98-.62 24 .1 1.15 1.93.84 2.14-.04 2.03-8.13 2.61-16.57 3.46-24.93.41-4.05.85-8.1 1.24-12.16.38-3.95 1.19-8.04.82-12.04-.25-2.73-4.53-2.04-5.07.03Zm-20.25-29.38c.27.55.57 1.1.88 1.64-7.12-5.61-18.01-7.66-26.95-9.03-15.51-2.39-31.25-3.83-47.04-4.51.47-1.71-1.92-3.17-3.63-2.01-1.08.73-2.17 1.47-3.25 2.21-1.25.86-1.4 3.17.52 3.58-.13.32-.25.64-.38.97-1.08 2.26 3.02 3.41 3.97 1.35l.97-2.1c14.25.56 28.44 1.76 42.49 3.67 13.05 1.77 25.49 4.14 34.29 13.72 1.1 1.2 3.23.77 4.04-.29 1.03 1.42 2.06 2.84 3.03 4.25 3.2 4.67 6.15 9.62 9.85 13.99 1.01 1.19 3.36.03 2.71-1.29-2.44-4.95-5.86-9.69-8.88-14.44-2.82-4.45-5.32-9.35-8.79-13.49-1.42-1.69-4.75-.07-3.82 1.79Zm-14.41 119.11c-13.09-.06-26.42.14-39.61-1.94-6.1-.96-11.96-2.62-17.8-4.58-6.29-2.11-11.32-5.32-16.89-8.56-1.14-.66-2.78.55-1.9 1.55 7.56 8.53 21.14 13.55 32.69 15.95 14.14 2.94 28.35 3.01 42.45 2.7 3.56-.08 5.22-5.09 1.05-5.11Zm172.24 97.2c-16.23-2.21-30.64-5.22-44.79-14.05-13.7-8.54-24.9-20.47-32.71-34.57-1.08-1.95-4.61-.65-3.53 1.56 14.18 29.07 47.06 54.42 80.65 53.8 4.88-.09 5.23-6.09.39-6.75Zm-16.97 23.83c-6.87 5.25-11.39 13.57-16.05 20.72-5.23 8.03-10.3 16.16-15.42 24.26-9.81 15.51-20.98 31.11-28.9 47.67-3.01 6.29 7.8 9.8 11.33 4.97 11.15-15.27 19.82-33.09 29.09-49.55 4.11-7.31 8.28-14.59 12.32-21.94 4.21-7.66 9.85-15.89 11.01-24.68.23-1.74-2.25-2.32-3.38-1.46Zm-72.18-15.5c-13.44 7.87-26.61 16.06-39.76 24.44-13.57 8.65-28.43 16.71-40.86 26.94-4.55 3.75 1.21 10.23 5.93 7.61 13.51-7.51 25.94-17.67 38.45-26.72 13.1-9.48 26.07-19.01 38.79-28.98 2-1.57-.56-4.45-2.56-3.28Zm-40.35-64.81c-33.08 8.61-66.13 17.63-98.88 27.43-6.09 1.82-3.75 10.28 2.15 8.58 33.15-9.56 66.13-19.93 98.91-30.69 3.5-1.15 1.08-6.17-2.18-5.32m21.72-35.57c1.66 9.64 7.59 19.58 11.83 28.3.82 1.69 3.92.88 3.52-1.08-1.97-9.6-3.39-20.72-7.99-29.47-1.85-3.52-8.06-1.86-7.35 2.25Zm142.48 89.18c-4.91.24-9.63 1.87-14.27 3.42-1.89.63-.83 3.03.77 3.14 4.62.33 9.55.82 14.11-.11 3.93-.8 3.56-6.65-.61-6.45M375.33 372.53c-14.14 9.76-25.63 26.17-24.37 43.98.13 1.89 3.21 2.74 3.87.69 5.13-15.84 12.03-29.52 26.47-38.76 4.7-3.01-1.77-8.81-5.97-5.91m-97.97-57.07c-5.09-4.59-10.18-9.19-15.27-13.78-5.05-4.56-9.91-10.07-15.99-13.18-4.26-2.18-13.45 1.49-9.26 7.24 4.09 5.61 10 9.35 15.43 13.62 5.89 4.63 11.77 9.26 17.66 13.89 11.18 8.8 22.48 17.72 34.76 24.92 1.94 1.14 4.44-.94 2.83-2.87-9.04-10.86-19.7-20.38-30.16-29.83Zm324.91 16.8c-24.55-19.55-54.9-26.21-85.57-21.86-2.1.3-1.22 2.95.7 2.78 28.14-2.56 58.31 7.85 79.47 26.36 23.24 20.33 33.17 47.77 35.44 77.81.5 6.56 11.52 7.66 11.78.69 1.21-32.36-16.9-65.93-41.82-85.77Zm-17.99-172.27c-12.99 40.05-24.84 80.05-33.61 121.19-.48 2.27 2.9 3.28 3.78 1.15 15.98-38.93 28.77-78.64 40.64-119.05 1.9-6.48-8.82-9.42-10.81-3.3Zm102.02 94.42c-12.62 5.47-24.25 16.58-35.29 24.78-11.9 8.84-22.69 19.16-34.5 28-1.83 1.37.73 3.34 2.34 2.32 12.84-8.15 26.66-14.81 39.52-23.04 11.64-7.44 26.16-14.41 35.7-24.37 4.44-4.64-3.57-9.52-7.78-7.69Zm58.62 117.58c-12.45 1.49-24.9 4.56-37.18 7.04-12.34 2.5-24.79 4.71-36.91 8.15-4.94 1.4-2.97 7 1.67 6.69 12.66-.84 25.21-2.92 37.77-4.7 12.44-1.77 25.24-3.04 37.49-5.81 8.42-1.9 5.06-12.31-2.84-11.36ZM635.36 558.74c-2.07-.88-4.04-.3-5.57 1.26-1.58 1.62-2.59 4.11-3.6 6.13-.48.95-.97 1.93-1.35 2.92-.45 1.15-.56 2.34-1 3.5-.6 1.58 1.66 2.54 2.78 1.63 1.02-.83 2.18-1.38 3.19-2.21.98-.8 1.89-1.72 2.79-2.61 1.87-1.85 3.8-3.6 5.03-5.92.97-1.83-.67-4.02-2.27-4.7m93.36 72.36c-5.22-5.88-12.53-10.21-18.81-14.92-6.41-4.81-12.84-9.57-19.3-14.31-12.39-9.1-25.03-19.71-39.19-25.89-1.16-.51-3 .92-2.1 2.14 8.92 12.17 22.25 21.76 33.74 31.41 6.09 5.12 12.21 10.22 18.35 15.27 6.1 5.02 12.02 10.99 18.99 14.74 5.61 3.02 13.38-2.74 8.32-8.44"/></svg>