<?xml version="1.0" encoding="UTF-8"?><svg id="b" xmlns="http://www.w3.org/2000/svg" viewBox="0 0 1239.26 1210.59"><defs><style>.c{fill:#eaab3d;}</style></defs><path class="c" d="M648.3,672.49v33.72c0,55.46,44.96,100.42,100.42,100.42h44.23v-234.56h-44.23c-55.46,0-100.42,44.96-100.42,100.42Z"/><path class="c" d="M1016.7,0H222.56C99.65,0,0,99.65,0,222.56v765.47c0,122.92,99.65,222.56,222.56,222.56h794.13c122.92,0,222.56-99.65,222.56-222.56V222.56c0-122.92-99.65-222.56-222.56-222.56ZM446.32,904.36h-118.58V355.75h118.58v548.61ZM911.53,474.33v385.72c-1.3,35.26-118.58,44.31-118.58,44.31h-72.4c-101.67,0-184.09-82.42-184.09-184.09v-61.85c0-101.67,82.42-184.09,184.09-184.09h72.4v-168.1h118.58v168.1Z"/></svg>