<?xml version="1.0" encoding="UTF-8"?><svg id="b" xmlns="http://www.w3.org/2000/svg" viewBox="0 0 1239.26 1210.59"><defs><style>.c{fill:#eaab3d;}</style></defs><path class="c" d="M731.69,443.17c-175.92,9.72-275.23,212.77-130.35,334.38,111.72,93.76,309.12,50.81,348.77-95.54,37.09-136.87-87.57-246.07-218.42-238.84ZM861.16,688.8c-48.29,75.47-167.95,80.14-224.24,11.4-67.86-82.9-1.92-189.91,97.19-196.5h.03c100.52-6.69,186.58,92.04,127.02,185.1Z"/><path class="c" d="M1110.78,0H128.48C57.52,0,0,57.52,0,128.48v953.63c0,70.96,57.52,128.48,128.48,128.48h982.3c70.96,0,128.48-57.52,128.48-128.48V128.48c0-70.96-57.52-128.48-128.48-128.48ZM896.91,946.23c-206.92,93.42-475.59-21.46-499.77-258.31l2.46-31.48c-.54-.64-4.54,2.69-5.28,3.3-64.03,49.57-124.63,106.71-189.07,155.4-27.24,20.58-75.16,38.91-96.52,7.36-32.79-48.46.91-89.32,10.63-98.13l367-281.08c-42.37-.57-84.88-.64-127.29-.44-27.71.13-81.96,6.36-105.06-7.8-48.46-29.73,2.42-91.88,45.33-91.2l403.89-.81c-44.12-37.09-89.66-72.57-133.81-109.6-22.8-26.74-1.18-55.02,27-63.86l12.71-3.26h16.38l-.03.03c5.85,1.28,11.74,2.12,17.39,4.27,4.61,1.78,9.05,4.54,13.15,7.33l324.19,249.43c182.58,155.97,130.95,422.12-83.3,518.84Z"/></svg>