<?xml version="1.0" encoding="UTF-8"?><svg id="b" xmlns="http://www.w3.org/2000/svg" viewBox="0 0 1239.26 1210.59"><defs><style>.c{fill:#eaab3d;}</style></defs><path class="c" d="M451.2,433.94h-74.28v174.62h74.28c24.11,0,45.93-9.77,61.74-25.57,15.79-15.81,25.57-37.63,25.57-61.74,0-48.22-39.09-87.31-87.31-87.31Z"/><path class="c" d="M1016.7,0H222.56C99.65,0,0,99.65,0,222.56v765.47c0,122.92,99.65,222.56,222.56,222.56h794.13c122.92,0,222.56-99.65,222.56-222.56V222.56c0-122.92-99.65-222.56-222.56-222.56ZM596.38,652.09c-33.49,33.48-79.75,54.2-130.85,54.2h-88.61v168.1h-113.37V336.2h201.98c102.19,0,185.04,82.85,185.04,185.04,0,51.1-20.72,97.36-54.2,130.85ZM975.71,564.9s-74.91-4.12-118.41,25.93c-16.14,11.14-25.58,29.67-25.58,49.28v234.29h-108.16v-411.78h108.16v52.28s50.17-63.35,143.99-63.35v113.37Z"/></svg>