<?xml version="1.0" encoding="UTF-8"?><svg id="b" xmlns="http://www.w3.org/2000/svg" viewBox="0 0 1239.26 1210.59"><defs><style>.c{fill:#eaab3d;}</style></defs><path class="c" d="M1016.7,0H222.56C99.65,0,0,99.65,0,222.56v765.47c0,122.92,99.65,222.56,222.56,222.56h794.13c122.92,0,222.56-99.65,222.56-222.56V222.56c0-122.92-99.65-222.56-222.56-222.56ZM669.34,899.15l-43.81-131.99-191.73,1.39-42.99,130.6h-119.65l170.89-473.99c8.33-23.1,12.59-47.46,12.59-72.02h146.05l195.16,546.01h-126.51ZM959.62,899.15h-113.37v-414.39h113.37v414.39ZM902.93,441.76c-35.98,0-65.16-29.17-65.16-65.16s29.17-65.16,65.16-65.16,65.16,29.17,65.16,65.16-29.17,65.16-65.16,65.16Z"/><polygon class="c" points="465.25 661.67 592.99 661.67 527.59 449.7 465.25 661.67"/></svg>