<?xml version="1.0" encoding="UTF-8"?><svg id="b" xmlns="http://www.w3.org/2000/svg" viewBox="0 0 1239.26 1206.68"><defs><style>.c{fill:#eaab3d;}</style></defs><path class="c" d="M1017.06,0H222.21C99.48,0,0,99.48,0,222.2v762.28c0,122.72,99.48,222.2,222.21,222.2h794.85c122.72,0,222.21-99.48,222.21-222.2V222.2c0-122.72-99.48-222.2-222.21-222.2ZM658.71,854.36c-12.21.1-24.43.04-36.64.04-21.71,0-43.42,0-65.13,0-9.27,0-10.05-.55-12.96-9.06-12.83-37.43-25.73-74.83-38.37-112.31-1.54-4.56-3.51-6.26-8.52-6.24-59.12.19-118.25.18-177.38,0-4.76-.01-6.65,1.49-8.06,5.91-11.74,36.96-23.75,73.84-35.67,110.75-3.08,9.53-4.49,10.58-14.45,10.58-28.88,0-57.77,0-86.65,0-11.95,0-13.2-1.71-9.32-12.8,38.3-109.49,76.63-218.96,114.9-328.46,17.06-48.83,34.38-97.57,50.67-146.65,3.7-11.13,3.9-23.49,5.15-35.34.87-8.19.74-8.56,8.8-8.56,20.74-.02,41.48,0,62.23,0s40.32,0,60.48,0c9.4,0,9.43.01,12.49,8.56,61.04,170.83,122.07,341.67,183.1,512.51.45,1.27.95,2.55,1.21,3.86,1.06,5.29-.38,7.18-5.88,7.23ZM1034.1,666.21c-46.25-.15-92.52-.3-138.77-.45-31.69-.1-63.38-.22-95.06-.32,13.47,140.14,219.83,77.4,219.83,77.4v88.26c-66.39,28.88-147.65,22.77-147.65,22.77-185.43-13.81-185.83-188.44-185.83-188.44-.13-56.98,10.04-118.44,44.87-165.21,43.56-58.49,119.83-75.05,189.13-62.62,19.48,3.49,38.44,10.05,55.55,19.99,31.92,18.51,54.55,48.18,66.59,82.72,7.73,22.19,11.43,45.8,12.63,69.55.69,14,.81,56.41.81,56.41,0,0-17.22-.05-22.09-.07Z"/><path class="c" d="M344.29,625.89h128.13c-21.93-70.55-43.77-140.79-65-209.1-20.67,68.46-41.86,138.66-63.13,209.1Z"/><path class="c" d="M876.03,515.23c-41.84,0-75.77,33.82-75.77,75.52h151.53c0-41.71-33.93-75.52-75.77-75.52Z"/></svg>